<?xml version="1.0" encoding="UTF-8" standalone="no"?>
<!-- Created with Inkscape (http://www.inkscape.org/) -->

<svg
   xmlns:dc="http://purl.org/dc/elements/1.1/"
   xmlns:cc="http://creativecommons.org/ns#"
   xmlns:rdf="http://www.w3.org/1999/02/22-rdf-syntax-ns#"
   xmlns:svg="http://www.w3.org/2000/svg"
   xmlns="http://www.w3.org/2000/svg"
   xmlns:sodipodi="http://sodipodi.sourceforge.net/DTD/sodipodi-0.dtd"
   xmlns:inkscape="http://www.inkscape.org/namespaces/inkscape"
   width="80"
   height="80"
   viewBox="0 0 80.000001 80.000001"
   id="svg4161"
   version="1.1"
   inkscape:version="0.91 r13725"
   sodipodi:docname="autex2.svg">
  <defs
     id="defs4163" />
  <sodipodi:namedview
     id="base"
     pagecolor="#ffffff"
     bordercolor="#666666"
     borderopacity="1.0"
     inkscape:pageopacity="0.0"
     inkscape:pageshadow="2"
     inkscape:zoom="3.959798"
     inkscape:cx="-90.867317"
     inkscape:cy="46.944225"
     inkscape:document-units="px"
     inkscape:current-layer="layer1"
     showgrid="false"
     units="px"
     inkscape:window-width="2560"
     inkscape:window-height="1017"
     inkscape:window-x="-8"
     inkscape:window-y="-8"
     inkscape:window-maximized="1" />
  <metadata
     id="metadata4166">
    <rdf:RDF>
      <cc:Work
         rdf:about="">
        <dc:format>image/svg+xml</dc:format>
        <dc:type
           rdf:resource="http://purl.org/dc/dcmitype/StillImage" />
        <dc:title></dc:title>
      </cc:Work>
    </rdf:RDF>
  </metadata>
  <g
     inkscape:label="Layer 1"
     inkscape:groupmode="layer"
     id="layer1"
     transform="translate(0,-972.36216)">
    <path
       style="fill:#111111"
       d="m 34.65279,1050.7121 c -13.887049,-2.4493 -25.2196952,-13.7738 -28.8474058,-27.2333 -1.585094,-5.2591 -1.007685,-10.8642 -0.8123079,-16.2698 0.7973368,-7.1275 4.2866774,-13.77717 8.7409847,-19.30421 9.053915,-10.94459 25.09744,-15.66742 38.481712,-10.51664 12.013533,4.28789 21.092677,15.39227 23.528971,27.82465 0.588601,5.3147 0.630204,10.7395 0.02583,16.0506 -2.661709,12.9453 -12.339487,24.3044 -25.032539,28.3066 -4.982744,1.5583 -10.337406,1.4862 -15.504007,1.2294 l -0.581242,-0.087 0,0 z m 10.148662,-12.9225 c 11.78921,-2.2787 20.50305,-14.2877 19.384256,-26.1901 -0.539963,-11.348 -9.573623,-22.31374 -21.261033,-23.11094 -9.204936,-1.28947 -18.514981,3.98851 -22.876123,12.04564 -6.165435,10.5631 -3.400232,25.3228 6.348683,32.7784 5.176201,3.8414 12.002634,5.9762 18.404217,4.477 z m -7.497739,-3.6857 c -0.61637,-1.7777 -4.662321,-4.9381 -5.3203,-2.6869 0.814461,1.2019 5.080802,4.9828 1.383449,2.2926 -2.959743,-2.7153 -6.18907,-5.1008 -9.798264,-6.8867 -1.834452,-0.8671 -1.793488,-2.2798 0.24711,-0.7606 1.77956,1.3209 3.66157,0.8477 1.802415,-1.4027 -0.669748,-3.5261 -3.55065,-5.0796 -6.12287,-6.4509 1.182338,-0.3858 4.053235,1.4249 3.408542,-0.9052 9.22e-4,-4.5077 -0.290131,-9.1444 1.61134,-13.3694 1.390868,-1.5227 -0.102738,-6.6708 1.182385,-6.45563 0.843187,3.93163 4.762239,-2.79268 3.454875,-3.59423 1.732021,0.64707 7.247716,-4.59441 3.906114,-0.86984 -0.431747,2.05769 4.575828,2.38263 6.251217,2.69918 2.550296,-1.35231 0.336404,-5.24412 0.188294,-5.32909 1.418827,1.16736 3.286844,-0.90944 3.183055,1.8125 2.139027,2.32101 3.775822,5.07798 4.542634,8.16081 1.508478,1.8407 4.041098,7.7563 6.618194,5.3111 -0.56315,-3.5532 -2.818396,-6.84255 -2.763342,-10.60915 0.904275,-3.84554 1.440038,2.95073 2.103047,4.07041 0.668208,1.19074 1.532241,5.42594 3.249302,4.19774 1.189976,-1.3883 4.496287,-2.5294 1.931364,0.1354 -3.55677,2.9893 3.440316,4.4691 3.443894,6.8611 -2.747664,-6e-4 -6.315999,-5.8524 -8.019868,-1.5639 0.67568,3.8313 2.542265,7.4532 2.455138,11.4394 0.03263,1.9479 -0.06641,5.3543 2.201598,2.5945 1.249541,-1.2691 3.572232,-2.2343 1.205899,-0.09 -1.133607,1.3238 -6.395424,4.6082 -1.899363,4.1093 -1.921223,1.0848 -3.43128,4.0251 -4.916607,5.029 0.792886,-3.8695 -4.103183,0.8456 -3.984302,2.1407 -1.546121,-1.0783 -5.752992,3.4528 -3.091262,-0.182 2.053898,-1.0288 0.687054,-2.9774 -1.246274,-2.8978 -1.317383,0.3859 -3.82532,-0.1101 -3.064394,1.9963 0.380704,1.6629 -0.559077,4.5808 -1.124812,1.2799 0.752943,-2.264 -3.703894,-4.3336 -2.382665,-1.1826 1.187017,1.2464 2.496476,4.6763 -0.07611,1.8423 l -0.281855,-0.3552 -0.27766,-0.3806 7.9e-5,-10e-5 z m 13.898892,-4.5348 c 1.438794,-0.7969 3.462283,-2.6175 0.558534,-1.163 -1.260653,0.3368 -6.590348,2.9851 -2.751791,2.4949 0.767084,-0.3818 1.4805,-0.8593 2.193257,-1.3319 z m -11.170478,-0.8239 c 1.586481,-3.4001 1.085222,-7.0412 -0.676725,-10.2673 -1.54326,-2.8414 -5.185147,1.2755 -7.433344,1.6624 0.862332,3.3241 2.598688,6.3503 3.949064,9.4992 1.307671,-0.2008 3.522955,0.5919 4.161005,-0.8943 z m 4.158458,0.2782 c -0.106481,-3.1705 -3.667593,-1.623 -1.974086,0.4451 0.673457,0.023 1.409739,-0.03 1.974086,-0.4451 z m -10.544537,-0.079 c -1.184725,-2.9502 -2.670834,-5.7692 -4.024097,-8.6448 -2.66665,-0.1594 -5.199183,0.5704 -2.859221,3.5419 0.991188,2.8239 3.670212,6.0693 6.883318,5.1029 l 0,0 z m 18.022336,-2.0891 c 4.016271,-1.0758 3.252495,-5.6284 2.835348,-8.7765 -0.473426,-2.0724 -1.462156,-9.8538 -4.187215,-5.3773 -2.401987,3.4457 -5.019113,6.9114 -6.438555,10.8904 0.218243,3.4858 2.950176,6.5876 6.33024,3.9225 0.491478,-0.209 0.977818,-0.43 1.460182,-0.6591 z m -8.568108,-6.6936 c 2.007852,-4.1054 5.008916,-7.6373 7.522768,-11.4151 0.324842,-2.2542 -4.378789,-6.754 -4.04828,-2.0354 -1.13868,3.425 -3.482992,6.2114 -5.714497,8.9752 0.736683,1.4566 0.410892,4.431 2.134891,4.7144 l 0.105118,-0.2386 0,-5e-4 z m -14.411648,-1.8705 c -0.593742,-3.8449 -1.651637,-7.667 -2.657341,-11.4405 -1.743415,-2.251 -1.1441,5.1761 -1.398654,6.6974 -0.0546,3.1339 -0.317866,6.871 4.055995,4.7431 z m 5.974649,-1.5847 c 4.779663,-1.016 3.059928,-6.2808 3.201115,-9.7723 -0.663327,-3.3724 2.32443,-7.67706 -0.239384,-10.28823 -2.887789,-1.48603 -7.31735,-2.71624 -8.713161,1.309 -2.628422,2.90703 -2.04394,6.65293 -0.956522,10.07783 1.028335,3.1843 1.148038,7.0034 3.332529,9.6032 1.186894,0.3006 2.317822,-0.5293 3.375423,-0.9295 z m 7.188279,-5.449 c 2.288513,-2.5557 3.272637,-5.8954 4.050578,-9.1593 -1.539905,-1.0901 -4.898768,-5.23761 -5.728754,-2.0787 -0.438392,3.9638 -0.674097,8.1102 0.278197,12.0023 0.435364,0.4687 1.090217,-0.5532 1.399979,-0.7643 z m 2.986298,-13.98124 c -0.400693,-3.36754 -4.385006,-5.24072 -3.808602,-0.61064 0.833372,0.91251 5.613218,4.50648 3.808602,0.61064 z M 4.0536774,974.74254 C 27.041554,999.33062 50.029419,1023.9187 73.017309,1048.5068 50.029446,1023.9187 27.041562,999.33061 4.0536774,974.74254 Z"
       id="path4720"
       inkscape:connector-curvature="0" />
  </g>
</svg>
