<?xml version="1.0" encoding="UTF-8" standalone="no"?>
<!-- Created with Inkscape (http://www.inkscape.org/) -->

<svg
   xmlns:dc="http://purl.org/dc/elements/1.1/"
   xmlns:cc="http://creativecommons.org/ns#"
   xmlns:rdf="http://www.w3.org/1999/02/22-rdf-syntax-ns#"
   xmlns:svg="http://www.w3.org/2000/svg"
   xmlns="http://www.w3.org/2000/svg"
   xmlns:sodipodi="http://sodipodi.sourceforge.net/DTD/sodipodi-0.dtd"
   xmlns:inkscape="http://www.inkscape.org/namespaces/inkscape"
   width="80"
   height="80"
   viewBox="0 0 80.000001 80.000001"
   id="svg4161"
   version="1.1"
   inkscape:version="0.91 r13725"
   sodipodi:docname="autex.svg">
  <defs
     id="defs4163" />
  <sodipodi:namedview
     id="base"
     pagecolor="#ffffff"
     bordercolor="#666666"
     borderopacity="1.0"
     inkscape:pageopacity="0.0"
     inkscape:pageshadow="2"
     inkscape:zoom="7.9195959"
     inkscape:cx="-31.861647"
     inkscape:cy="46.639649"
     inkscape:document-units="px"
     inkscape:current-layer="layer1"
     showgrid="false"
     units="px"
     inkscape:window-width="2560"
     inkscape:window-height="1017"
     inkscape:window-x="-8"
     inkscape:window-y="-8"
     inkscape:window-maximized="1" />
  <metadata
     id="metadata4166">
    <rdf:RDF>
      <cc:Work
         rdf:about="">
        <dc:format>image/svg+xml</dc:format>
        <dc:type
           rdf:resource="http://purl.org/dc/dcmitype/StillImage" />
        <dc:title></dc:title>
      </cc:Work>
    </rdf:RDF>
  </metadata>
  <g
     inkscape:label="Layer 1"
     inkscape:groupmode="layer"
     id="layer1"
     transform="translate(0,-972.36216)">
    <path
       style="fill:#111111"
       d="m 34.65279,1050.7121 c -13.810132,-2.6342 -24.7415695,-12.954 -28.8474058,-27.2333 -0.9386546,-3.2644 -1.029103,-4.1504 -1.0345852,-10.1352 -0.00757,-7.8248 0.5876499,-10.6833 3.5150097,-16.89205 4.3470063,-9.21959 11.4898333,-15.79516 20.7959093,-19.14427 17.047886,-6.1353 35.984005,2.2677 43.87255,19.4686 2.710419,5.91002 3.235372,8.61902 3.210612,16.56772 -0.02001,6.4226 -0.101452,7.2297 -1.062674,10.5327 -3.798315,13.0519 -13.352715,22.6422 -26.140934,26.2387 -2.648439,0.7449 -11.579955,1.1178 -14.308482,0.5971 z m 10.148662,-12.9225 c 9.061276,-1.6969 17.019029,-9.7476 18.910463,-19.1316 2.031581,-10.0791 -1.868716,-20.35176 -9.923703,-26.1368 -3.753395,-2.69573 -7.329989,-3.90354 -12.200451,-4.12009 -4.947299,-0.21996 -8.016961,0.47604 -12.208279,2.76807 -9.037391,4.94215 -14.091107,15.80752 -12.257586,26.35342 1.369885,7.8793 6.212076,14.7031 12.773051,18.0003 1.751707,0.8803 4.120785,1.793 5.264624,2.028 1.14384,0.2351 2.420025,0.4979 2.835967,0.584 1.554424,0.3218 3.871168,0.2042 6.805914,-0.3453 z m -7.497739,-3.6857 c -1.795683,-2.5713 -2.470769,-3.1259 -4.129317,-3.3919 -1.972976,-0.3167 -1.837303,0.3245 0.559693,2.6455 1.569864,1.52 1.724217,1.7635 0.727457,1.1478 -0.695871,-0.4299 -2.285436,-1.7255 -3.532353,-2.8792 -1.246918,-1.1537 -3.570255,-2.7602 -5.162958,-3.57 -1.592716,-0.8098 -3.129381,-1.7685 -3.414805,-2.1305 -0.679838,-0.8622 -0.339219,-0.8303 1.464278,0.1367 1.360117,0.7294 2.646901,1.035 2.646901,0.6287 0,-0.3452 -2.601462,-5.8554 -3.006652,-6.3686 -0.232902,-0.2948 -0.983375,-0.6466 -1.667738,-0.7816 -0.68435,-0.135 -1.571616,-0.5193 -1.971701,-0.8544 -0.670813,-0.5615 -0.579042,-0.5901 1.179446,-0.3664 l 1.906854,0.2426 0.0038,-4.8949 c 0.0038,-4.5139 0.101338,-5.1871 1.255841,-8.6511 1.048085,-3.1449 1.213592,-4.0995 1.016435,-5.86256 -0.239318,-2.14035 0.247712,-2.93407 0.682649,-1.11264 0.350941,1.46984 1.003201,1.18904 2.591266,-1.11488 1.302503,-1.88979 1.368473,-2.10693 0.778516,-2.56163 -0.566953,-0.43694 -0.505809,-0.49683 0.507701,-0.49683 0.737503,0 1.784378,-0.50729 2.908239,-1.40926 1.856688,-1.49022 2.445624,-1.35163 0.76885,0.18084 -0.542918,0.49617 -0.840694,1.04175 -0.661726,1.21239 0.391603,0.37348 5.50756,2.00333 6.288244,2.00333 0.306688,0 0.844652,-0.80644 1.211499,-1.81613 0.656369,-1.80646 0.655146,-1.82143 -0.232221,-2.83614 l -0.892082,-1.02002 0.85079,0.46543 c 0.614913,0.33625 1.060463,0.34738 1.607047,0.0398 0.656457,-0.36924 0.756258,-0.3022 0.756258,0.50782 0,0.52611 0.509692,1.44265 1.168128,2.10072 1.496936,1.49603 2.811048,3.8751 3.369531,6.10052 0.309965,1.23504 1.17709,2.60864 2.933183,4.64684 2.118605,2.4587 2.599988,2.8334 3.204439,2.4933 1.1798,-0.6636 1.167536,-1.3837 -0.06856,-4.023 -1.21165,-2.58714 -2.198503,-7.2823 -1.774621,-8.44342 0.379465,-1.03935 0.874927,-0.36804 1.121001,1.5191 0.307582,2.3588 1.655183,6.04502 2.653783,7.25912 l 0.81667,0.9928 1.599372,-1.2396 c 2.185527,-1.6939 2.841626,-1.1267 0.995424,0.8608 -1.724431,1.8562 -1.614132,2.203 1.410129,4.4326 2.509508,1.85 3.038132,3.0293 0.946142,2.1105 -0.742765,-0.3262 -2.106196,-1.1397 -3.029845,-1.8077 -1.966094,-1.4218 -2.511317,-1.4908 -3.42175,-0.4334 -0.757153,0.8794 -0.714084,1.1932 0.765471,5.5783 0.715142,2.1196 1.064534,4.1009 1.209017,6.8563 0.111799,2.1314 0.290616,3.8752 0.397451,3.8752 0.106884,0 1.103051,-0.7211 2.213791,-1.6027 1.110746,-0.8814 2.019537,-1.4319 2.019537,-1.2232 0,0.419 -3.792581,4.0183 -4.234148,4.0183 -0.152234,0 -0.470644,0.3807 -0.707592,0.8462 -0.402795,0.7911 -0.354509,0.8342 0.74296,0.6649 1.595061,-0.246 1.476642,0.2976 -0.268673,1.2336 -0.985265,0.5283 -1.66262,1.2867 -2.137146,2.3929 -0.786496,1.8332 -1.7177,2.215 -1.420794,0.5823 0.17859,-0.9819 0.140803,-1.0104 -0.714159,-0.5397 -2.003339,1.103 -3.014065,2.074 -2.905226,2.791 0.128462,0.8462 -0.0088,0.928 -0.931861,0.5558 -0.432781,-0.1745 -1.135848,0.1086 -2.010007,0.8095 -1.796868,1.4405 -2.129874,0.9348 -0.52817,-0.8023 l 1.282096,-1.3904 -0.80883,-0.8502 c -0.726638,-0.7637 -1.013272,-0.8136 -2.820463,-0.4897 l -2.01162,0.3607 0.07576,2.31 c 0.08836,2.6945 -0.632497,2.9686 -1.152423,0.438 -0.430576,-2.0955 -0.770349,-2.7261 -1.556354,-2.8886 -1.130365,-0.2336 -1.521829,0.5747 -0.826311,1.706 1.978546,3.2184 1.886976,3.0014 1.26629,3.0014 -0.318158,0 -1.174014,-0.8527 -1.901912,-1.8949 z m 13.898892,-4.5348 c 1.3626,-0.9131 2.420428,-1.72 2.350739,-1.7933 -0.0697,-0.073 -0.876188,0.2104 -1.792205,0.6303 -0.916017,0.4199 -2.315812,1.0444 -3.110677,1.3876 -0.794852,0.3432 -1.337819,0.8067 -1.206596,1.0298 0.419332,0.7134 1.222554,0.4452 3.758739,-1.2544 z m -11.170478,-0.8239 c 0.173952,-0.4918 0.540244,-1.8251 0.813959,-2.9628 0.473443,-1.9678 0.444894,-2.2097 -0.585973,-4.9682 -1.526695,-4.0853 -1.461216,-4.0307 -3.529807,-2.9414 -0.967883,0.5097 -2.395522,1.1431 -3.172513,1.4076 -0.776992,0.2643 -1.51307,0.6513 -1.635735,0.8599 -0.12264,0.2086 0.715709,2.4313 1.863028,4.9392 l 2.086036,4.56 1.922356,0 c 1.647759,0 1.967542,-0.1272 2.238649,-0.8943 z m 4.158458,0.2782 c 0.239204,-0.2515 -1.074756,-2.1661 -1.486512,-2.1661 -0.490799,0 -1.192253,1.934 -0.888704,2.4503 0.204026,0.347 1.976492,0.1349 2.375216,-0.2842 z m -10.544537,-0.079 c -5.67e-4,-0.1639 -0.906211,-2.1762 -2.012565,-4.4715 l -2.011532,-4.1733 -1.863267,0.1388 c -1.024793,0.077 -1.930373,0.2065 -2.012389,0.2893 -0.286987,0.2894 1.174985,3.782 2.358289,5.6339 0.90045,1.4093 1.565843,1.9856 2.706507,2.3443 1.790326,0.5628 2.836356,0.6509 2.834957,0.2385 z m 18.022336,-2.0891 c 1.280937,-0.6091 2.514582,-1.4719 2.741433,-1.9174 0.527478,-1.036 0.528222,-4.4302 0.0013,-7.4245 -0.552799,-3.1438 -1.800612,-6.5541 -2.398042,-6.5541 -1.021565,0 -8.095813,10.9852 -8.135113,12.6326 -0.02659,1.1167 1.666716,4.7173 2.330117,4.9544 0.67854,0.2426 2.728805,-0.3924 5.460092,-1.691 z m -8.568108,-6.6936 c 0,-0.5455 4.097769,-6.8212 6.094087,-9.3332 2.041783,-2.5691 2.041669,-2.5734 -0.131185,-5.2037 -1.242759,-1.5045 -2.181614,-1.6852 -2.181614,-0.4201 0,1.5702 -1.762068,5.1496 -3.776586,7.6715 l -2.244711,2.8102 0.592615,2.1079 c 0.325948,1.1593 0.66983,2.242 0.764198,2.4059 0.233822,0.4063 0.883196,0.378 0.883196,-0.038 z m -14.411648,-1.8705 c 0.09605,-0.1007 -0.0025,-0.853 -0.219894,-1.6711 -0.217033,-0.8181 -0.880485,-3.5889 -1.474337,-6.1576 -1.513939,-6.5482 -2.048878,-6.2049 -2.322794,1.4905 -0.106507,2.9918 -0.01261,5.1953 0.251922,5.9119 0.397211,1.0761 0.513725,1.127 2.006048,0.8762 0.871398,-0.1466 1.662973,-0.349 1.759055,-0.4499 z m 5.974649,-1.5847 c 3.56244,-1.6561 3.512426,-1.5506 3.266794,-6.8821 -0.155878,-3.3834 -0.04538,-5.6366 0.410686,-8.3773 0.732284,-4.40044 0.755904,-4.35169 -2.696588,-5.56195 -3.041113,-1.066 -4.315912,-1.04903 -5.292657,0.0702 -1.411403,1.61727 -3.510773,5.40915 -3.510282,6.34035 6.8e-4,1.2824 1.720233,8.662 2.87548,12.3404 1.129282,3.5956 1.41158,3.7139 4.946567,2.0706 z m 7.188279,-5.449 c 1.526708,-1.7645 2.730102,-4.1171 3.384707,-6.6166 l 0.665871,-2.5427 -1.23701,-1.0856 c -0.680354,-0.597 -1.827685,-1.41986 -2.549621,-1.82836 -1.082003,-0.61253 -1.368637,-0.64777 -1.63145,-0.2008 -0.963119,1.63796 -0.839395,13.16826 0.141307,13.16826 0.248846,0 0.800638,-0.4024 1.226196,-0.8942 z m 2.986298,-13.98124 c -0.799516,-2.01129 -2.062579,-3.80516 -2.679321,-3.80516 -0.595086,0 -1.500919,2.56243 -1.129281,3.19452 0.463611,0.78843 3.766717,2.73382 4.080993,2.40362 0.170788,-0.1796 0.04827,-0.9864 -0.272391,-1.79298 z M 4.0536774,974.74254 c 119.5661526,127.88926 59.7830756,63.94456 0,0 z"
       id="path4720"
       inkscape:connector-curvature="0"
       sodipodi:nodetypes="cscsssssscsssssscscsccscscccscscccccscccscccscccccsccccscsccccccccscscssccccsccccscsccscccsccsccscscsssccscsccscccscccscccccsccccsccsccscssccssscccscccscccccccccsccsccccc" />
  </g>
</svg>
