<?xml version="1.0" encoding="UTF-8" standalone="no"?>
<!-- Created with Inkscape (http://www.inkscape.org/) -->

<svg
   xmlns:dc="http://purl.org/dc/elements/1.1/"
   xmlns:cc="http://creativecommons.org/ns#"
   xmlns:rdf="http://www.w3.org/1999/02/22-rdf-syntax-ns#"
   xmlns:svg="http://www.w3.org/2000/svg"
   xmlns="http://www.w3.org/2000/svg"
   xmlns:sodipodi="http://sodipodi.sourceforge.net/DTD/sodipodi-0.dtd"
   xmlns:inkscape="http://www.inkscape.org/namespaces/inkscape"
   version="1.0"
   width="180"
   height="185"
   id="svg2"
   sodipodi:version="0.32"
   inkscape:version="0.91 r13725"
   sodipodi:docname="Symbol_remind_vote2.svg"
   inkscape:output_extension="org.inkscape.output.svg.inkscape">
  <metadata
     id="metadata13">
    <rdf:RDF>
      <cc:Work
         rdf:about="">
        <dc:format>image/svg+xml</dc:format>
        <dc:type
           rdf:resource="http://purl.org/dc/dcmitype/StillImage" />
        <dc:title></dc:title>
      </cc:Work>
    </rdf:RDF>
  </metadata>
  <sodipodi:namedview
     inkscape:window-height="1001"
     inkscape:window-width="1920"
     inkscape:pageshadow="2"
     inkscape:pageopacity="0.0"
     guidetolerance="10.0"
     gridtolerance="10.0"
     objecttolerance="10.0"
     borderopacity="1.0"
     bordercolor="#666666"
     pagecolor="#ffffff"
     id="base"
     showgrid="false"
     showguides="true"
     inkscape:guide-bbox="true"
     inkscape:zoom="0.77699204"
     inkscape:cx="258.73019"
     inkscape:cy="24.155913"
     inkscape:window-x="-9"
     inkscape:window-y="-9"
     inkscape:current-layer="svg2"
     inkscape:window-maximized="1" />
  <defs
     id="defs4">
    <inkscape:perspective
       sodipodi:type="inkscape:persp3d"
       inkscape:vp_x="0 : 92.5 : 1"
       inkscape:vp_y="0 : 1000 : 0"
       inkscape:vp_z="180 : 92.5 : 1"
       inkscape:persp3d-origin="90 : 61.666667 : 1"
       id="perspective15" />
  </defs>
  <path
     id="path1367"
     style="fill:#000000;fill-opacity:0.19607843;fill-rule:evenodd"
     d="M 164.07126,82.212596 C 170.78504,130.12831 140.3785,174.02521 96.156367,180.25907 C 51.934216,186.49294 10.642499,152.70312 3.9287293,104.78742 C -2.7850407,56.871697 27.621486,12.974795 71.843626,6.740932 C 116.06576,0.50707 157.35749,34.296885 164.07126,82.212596 z" />
  <path
     d="M 176.07129,80.21262 C 182.78506,128.12832 152.37851,172.02522 108.15636,178.25907 C 63.934213,184.49293 22.642495,150.70312 15.928728,102.78741 C 9.2149612,54.871714 39.621512,10.97482 83.843659,4.740963 C 128.0658,-1.4928942 169.35752,32.296919 176.07129,80.21262 z"
     style="fill:#8c8c8c;fill-opacity:1;fill-rule:evenodd"
     id="path1306" />
  <path
     d="M 160.05714,82.470128 C 165.42816,120.80268 141.10292,155.92018 105.7252,160.90727 C 70.347472,165.89435 37.314106,138.86251 31.943094,100.52996 C 26.572083,62.197416 50.897318,27.079914 86.275043,22.092827 C 121.65276,17.105741 154.68613,44.13758 160.05714,82.470128 L 160.05714,82.470128 z"
     style="fill:#f8f8f8;fill-opacity:1;fill-rule:evenodd"
     id="path1308" />
  <g
     id="g2447"
     transform="matrix(1,-2.0353033e-4,2.0353033e-4,1,-77.598678,-24.682268)" />
  <g
     transform="matrix(0.99302842,-0.11787518,0.11787518,0.99302842,0,0)"
     style="font-size:181.90249634px;font-style:normal;font-variant:normal;font-weight:bold;font-stretch:normal;line-height:125%;letter-spacing:0px;word-spacing:0px;fill:#ff8800;fill-opacity:1;stroke:none;font-family:DejaVu Sans;-inkscape-font-specification:DejaVu Sans Bold"
     id="text4430">
    <path
       d="m 128.01925,86.935534 -29.310465,15.365786 29.310465,15.45461 -6.75029,12.52356 -29.576922,-16.3428 0,30.55393 -15.099328,0 0,-30.55393 -29.665739,16.3428 -6.750288,-12.52356 29.665739,-15.45461 -29.665739,-15.365786 6.750288,-12.52356 29.665739,16.165163 0,-30.553935 15.099328,0 0,30.553935 29.576922,-16.165163 6.75029,12.52356"
       style="fill:#8c8c8c;fill-opacity:1"
       id="path4514" />
  </g>
</svg>
