<?xml version="1.0" encoding="utf-8"?>
<!-- Svg Vector Icons : http://www.onlinewebfonts.com/icon -->
<!DOCTYPE svg PUBLIC "-//W3C//DTD SVG 1.1//EN" "http://www.w3.org/Graphics/SVG/1.1/DTD/svg11.dtd">
<svg version="1.1" xmlns="http://www.w3.org/2000/svg" xmlns:xlink="http://www.w3.org/1999/xlink" x="0px" y="0px" viewBox="0 0 1000 1000" enable-background="new 0 0 1000 1000" xml:space="preserve">
<metadata> Svg Vector Icons : http://www.onlinewebfonts.com/icon </metadata>
<g><path d="M536.3,988.9c-6.4,0-12.9-0.2-19.6-0.5c-20.9-1.1-37-19-35.9-39.9c1.1-20.9,19-36.9,40-35.8c54.3,2.9,86.6-8,115-38.9c33.2-36.1,61.9-101.4,94.9-188.3c71.3-188,143.5-408.1,172.2-497L415.8,91.7L244.2,561.2c-7.2,19.7-29,29.8-48.7,22.6c-19.7-7.2-29.9-28.9-22.7-48.6l182.7-500C362,17.6,380.3,7.4,398.7,11l560.8,111.4c10.6,2.1,19.8,8.6,25.3,17.9c5.5,9.3,6.8,20.4,3.5,30.7c-0.9,3-94.4,298.5-186.4,541.3c-37.1,97.8-68.5,167.5-110,212.7C651.6,968.8,603.1,988.9,536.3,988.9L536.3,988.9z"/><path d="M540,989.3c-46.3,4.1-100.6-21.9-100.6-21.9L123.1,824.1c0,0-149.6-46.7-104.6-240.9l432,174.2c0,0-16.6,172.1,118.6,153.1C593.2,935,583.3,981.6,540,989.3L540,989.3z"/><path d="M740.3,376.2c-3.3,0-6.7-0.4-10-1.4l-165.8-45.3c-20.2-5.5-32.1-26.4-26.6-46.5s26.4-32.1,46.6-26.5l165.8,45.3c20.2,5.5,32.1,26.4,26.6,46.5C772.3,365.2,757,376.2,740.3,376.2L740.3,376.2z"/><path d="M673.1,540.7c-3.9,0-7.9-0.6-11.8-1.9L496,484.7c-19.9-6.5-30.8-27.9-24.2-47.8c6.5-19.9,28-30.7,47.9-24.2l165.2,54.1c19.9,6.5,30.8,27.9,24.2,47.8C703.9,530.5,689,540.7,673.1,540.7L673.1,540.7z"/><path d="M611,693.6c-3.9,0-7.9-0.6-11.8-1.9l-165.2-54.1c-19.9-6.5-30.8-27.9-24.2-47.8s28-30.7,47.9-24.2l165.2,54.1c19.9,6.5,30.8,27.9,24.2,47.8C641.8,683.4,626.9,693.6,611,693.6L611,693.6z"/><path d="M462.9,296.6c-2.6,0-5.2-0.3-7.9-0.8l-1.9-0.4c-1.4-0.3-2.7-0.6-4.1-0.9c-20.5-4.4-33.5-24.6-29.1-45c4.4-20.5,24.6-33.5,45.1-29c1.2,0.3,2.4,0.5,3.7,0.8l2,0.4c20.5,4.3,33.6,24.4,29.3,44.9C496.2,284.4,480.5,296.6,462.9,296.6L462.9,296.6z"/><path d="M403.6,453.6c-2.6,0-5.2-0.3-7.9-0.8l-1.8-0.4c-1.4-0.3-2.8-0.6-4.1-0.9c-20.5-4.4-33.5-24.6-29.1-45c4.4-20.5,24.6-33.5,45.1-29c1.2,0.3,2.5,0.5,3.7,0.8l1.9,0.4c20.5,4.3,33.6,24.4,29.3,44.9C436.9,441.3,421.2,453.6,403.6,453.6L403.6,453.6z"/><path d="M343.2,599c-2.6,0-5.3-0.3-7.9-0.8l-2-0.4c-1.3-0.3-2.6-0.6-3.9-0.8c-20.5-4.4-33.5-24.6-29.1-45c4.4-20.5,24.6-33.4,45.1-29c1.1,0.2,2.3,0.5,3.5,0.7l2.1,0.5c20.5,4.3,33.6,24.5,29.3,44.9C376.6,586.8,360.8,599,343.2,599L343.2,599z"/></g>
</svg>